<mxfile host="app.diagrams.net" modified="2023-03-31T21:52:21.582Z" agent="Mozilla/5.0 (Macintosh; Intel Mac OS X 10_15_7) AppleWebKit/605.1.15 (KHTML, like Gecko) Version/16.4 Safari/605.1.15" etag="HPtQ9b-pHL7vGkWhQHSA" version="21.1.2" type="device">
  <diagram id="VbIkxto5LYiy9_u_ZyFP" name="Page-1">
    <mxGraphModel dx="918" dy="727" grid="1" gridSize="10" guides="1" tooltips="1" connect="1" arrows="1" fold="1" page="1" pageScale="1" pageWidth="850" pageHeight="1100" math="0" shadow="0">
      <root>
        <mxCell id="0" />
        <mxCell id="1" parent="0" />
        <mxCell id="I_eIPNrGaGb-8BUkP_D7-1" value="&lt;b&gt;Inventor&lt;/b&gt;" style="ellipse;whiteSpace=wrap;html=1;aspect=fixed;fillColor=#d5e8d4;strokeColor=#82b366;fontSize=14;" parent="1" vertex="1">
          <mxGeometry x="105" y="150" width="80" height="80" as="geometry" />
        </mxCell>
        <mxCell id="I_eIPNrGaGb-8BUkP_D7-2" value="" style="curved=1;endArrow=classic;html=1;rounded=0;exitX=0.5;exitY=0;exitDx=0;exitDy=0;entryX=0.063;entryY=0.275;entryDx=0;entryDy=0;entryPerimeter=0;verticalAlign=middle;fontSize=14;" parent="1" source="I_eIPNrGaGb-8BUkP_D7-1" target="I_eIPNrGaGb-8BUkP_D7-1" edge="1">
          <mxGeometry width="50" height="50" relative="1" as="geometry">
            <mxPoint x="105" y="130" as="sourcePoint" />
            <mxPoint x="105" y="110" as="targetPoint" />
            <Array as="points">
              <mxPoint x="145" y="110" />
              <mxPoint x="75" y="140" />
            </Array>
          </mxGeometry>
        </mxCell>
        <mxCell id="I_eIPNrGaGb-8BUkP_D7-3" value=":COINVENTOR_WITH" style="edgeLabel;html=1;align=center;verticalAlign=middle;resizable=0;points=[];fontSize=13;labelPosition=center;verticalLabelPosition=middle;" parent="I_eIPNrGaGb-8BUkP_D7-2" vertex="1" connectable="0">
          <mxGeometry x="0.2305" y="4" relative="1" as="geometry">
            <mxPoint x="-6" y="2" as="offset" />
          </mxGeometry>
        </mxCell>
        <mxCell id="I_eIPNrGaGb-8BUkP_D7-4" value="&lt;b&gt;Patent&lt;/b&gt;" style="ellipse;whiteSpace=wrap;html=1;aspect=fixed;fontSize=18;fillColor=#fff2cc;strokeColor=#d6b656;" parent="1" vertex="1">
          <mxGeometry x="343" y="380" width="120" height="120" as="geometry" />
        </mxCell>
        <mxCell id="I_eIPNrGaGb-8BUkP_D7-7" value="" style="endArrow=classic;html=1;rounded=0;fontSize=18;exitX=1;exitY=1;exitDx=0;exitDy=0;" parent="1" source="I_eIPNrGaGb-8BUkP_D7-1" target="I_eIPNrGaGb-8BUkP_D7-4" edge="1">
          <mxGeometry width="50" height="50" relative="1" as="geometry">
            <mxPoint x="225" y="240" as="sourcePoint" />
            <mxPoint x="275" y="190" as="targetPoint" />
          </mxGeometry>
        </mxCell>
        <mxCell id="I_eIPNrGaGb-8BUkP_D7-11" value=":INVENTOR_OF" style="edgeLabel;html=1;align=center;verticalAlign=middle;resizable=0;points=[];fontSize=13;" parent="I_eIPNrGaGb-8BUkP_D7-7" vertex="1" connectable="0">
          <mxGeometry x="-0.2228" y="-3" relative="1" as="geometry">
            <mxPoint x="21" y="19" as="offset" />
          </mxGeometry>
        </mxCell>
        <mxCell id="I_eIPNrGaGb-8BUkP_D7-8" value="&lt;b&gt;Assignee&lt;/b&gt;" style="ellipse;whiteSpace=wrap;html=1;aspect=fixed;fontSize=14;fillColor=#dae8fc;strokeColor=#6c8ebf;" parent="1" vertex="1">
          <mxGeometry x="675" y="150" width="80" height="80" as="geometry" />
        </mxCell>
        <mxCell id="I_eIPNrGaGb-8BUkP_D7-10" value=":ASSIGNED_TO" style="endArrow=classic;html=1;rounded=0;fontSize=13;" parent="1" source="I_eIPNrGaGb-8BUkP_D7-8" target="I_eIPNrGaGb-8BUkP_D7-4" edge="1">
          <mxGeometry x="-0.3455" y="-23" width="50" height="50" relative="1" as="geometry">
            <mxPoint x="565" y="290" as="sourcePoint" />
            <mxPoint x="615" y="240" as="targetPoint" />
            <mxPoint as="offset" />
          </mxGeometry>
        </mxCell>
        <mxCell id="I_eIPNrGaGb-8BUkP_D7-12" value="&lt;b&gt;Location&lt;/b&gt;" style="ellipse;whiteSpace=wrap;html=1;aspect=fixed;fontSize=13;fillColor=#ffe6cc;strokeColor=#d79b00;" parent="1" vertex="1">
          <mxGeometry x="380" y="120" width="80" height="80" as="geometry" />
        </mxCell>
        <mxCell id="I_eIPNrGaGb-8BUkP_D7-13" value=":INVENTOR_LOCATED_IN" style="endArrow=classic;html=1;rounded=0;fontSize=13;entryX=0;entryY=0.588;entryDx=0;entryDy=0;entryPerimeter=0;" parent="1" source="I_eIPNrGaGb-8BUkP_D7-1" target="I_eIPNrGaGb-8BUkP_D7-12" edge="1">
          <mxGeometry x="0.0429" y="16" width="50" height="50" relative="1" as="geometry">
            <mxPoint x="195" y="190" as="sourcePoint" />
            <mxPoint x="385" y="190" as="targetPoint" />
            <mxPoint as="offset" />
          </mxGeometry>
        </mxCell>
        <mxCell id="I_eIPNrGaGb-8BUkP_D7-14" value=":ASSIGNEE_LOCATED_IN" style="endArrow=classic;html=1;rounded=0;fontSize=13;exitX=0;exitY=0.5;exitDx=0;exitDy=0;entryX=1;entryY=0.5;entryDx=0;entryDy=0;" parent="1" source="I_eIPNrGaGb-8BUkP_D7-8" target="I_eIPNrGaGb-8BUkP_D7-12" edge="1">
          <mxGeometry x="-0.0366" y="-26" width="50" height="50" relative="1" as="geometry">
            <mxPoint x="575" y="180" as="sourcePoint" />
            <mxPoint x="625" y="130" as="targetPoint" />
            <mxPoint as="offset" />
          </mxGeometry>
        </mxCell>
        <mxCell id="I_eIPNrGaGb-8BUkP_D7-15" value="&lt;b&gt;Attorney&lt;/b&gt;" style="ellipse;whiteSpace=wrap;html=1;aspect=fixed;fontSize=13;fillColor=#f8cecc;strokeColor=#b85450;" parent="1" vertex="1">
          <mxGeometry x="745" y="310" width="80" height="80" as="geometry" />
        </mxCell>
        <mxCell id="I_eIPNrGaGb-8BUkP_D7-16" value="location_id &amp;nbsp; &amp;nbsp; &amp;nbsp;c&lt;br&gt;city &amp;nbsp; &amp;nbsp; &amp;nbsp; &amp;nbsp; &amp;nbsp; &amp;nbsp; &amp;nbsp; &amp;nbsp; &amp;nbsp;cm&lt;br&gt;county&lt;br&gt;state &amp;nbsp; &amp;nbsp; &amp;nbsp; &amp;nbsp; &amp;nbsp; &amp;nbsp; &amp;nbsp; &amp;nbsp;c&lt;br&gt;country &amp;nbsp; &amp;nbsp; &amp;nbsp; &amp;nbsp; &amp;nbsp; &amp;nbsp;c&lt;br&gt;state_fips &amp;nbsp; &amp;nbsp; &amp;nbsp; &amp;nbsp;c&lt;br&gt;county_fips &amp;nbsp; &amp;nbsp; c&lt;br&gt;latitude&lt;br&gt;longitude" style="whiteSpace=wrap;html=1;fontSize=13;align=left;verticalAlign=top;" parent="1" vertex="1">
          <mxGeometry x="355" y="176.25" width="140" height="150" as="geometry" />
        </mxCell>
        <mxCell id="I_eIPNrGaGb-8BUkP_D7-17" value="assignee_id &amp;nbsp; &amp;nbsp; &amp;nbsp; &amp;nbsp; &amp;nbsp; &amp;nbsp; &amp;nbsp; &amp;nbsp; &amp;nbsp; &amp;nbsp; c&lt;br&gt;assignee_type &amp;nbsp; &amp;nbsp; &amp;nbsp; &amp;nbsp; &amp;nbsp; &amp;nbsp; &amp;nbsp; &amp;nbsp; c&lt;br&gt;assignee_name &amp;nbsp; &amp;nbsp; &amp;nbsp; &amp;nbsp; &amp;nbsp; &amp;nbsp; &amp;nbsp; cm&lt;br&gt;assignee_display_name&lt;br&gt;assignee_organization &amp;nbsp; &amp;nbsp;cm" style="whiteSpace=wrap;html=1;fontSize=13;align=left;verticalAlign=top;" parent="1" vertex="1">
          <mxGeometry x="665" y="200" width="175" height="90" as="geometry" />
        </mxCell>
        <mxCell id="I_eIPNrGaGb-8BUkP_D7-18" value="inventor_id &amp;nbsp; &amp;nbsp; &amp;nbsp; &amp;nbsp; &amp;nbsp; &amp;nbsp; &amp;nbsp; &amp;nbsp; &amp;nbsp; &amp;nbsp; c&lt;br&gt;inventor_name &amp;nbsp; &amp;nbsp; &amp;nbsp; &amp;nbsp; &amp;nbsp; &amp;nbsp; &amp;nbsp; cm&lt;br&gt;inventor_display_name&lt;br&gt;male_flag" style="whiteSpace=wrap;html=1;fontSize=13;align=left;verticalAlign=top;" parent="1" vertex="1">
          <mxGeometry x="50" y="201.25" width="190" height="68.75" as="geometry" />
        </mxCell>
        <mxCell id="8tcnVI2hWbha8-BifQ2l-1" value="" style="endArrow=classic;html=1;rounded=0;exitX=0;exitY=0.5;exitDx=0;exitDy=0;entryX=0.958;entryY=0.292;entryDx=0;entryDy=0;entryPerimeter=0;" parent="1" source="I_eIPNrGaGb-8BUkP_D7-15" target="I_eIPNrGaGb-8BUkP_D7-4" edge="1">
          <mxGeometry width="50" height="50" relative="1" as="geometry">
            <mxPoint x="585" y="470" as="sourcePoint" />
            <mxPoint x="635" y="420" as="targetPoint" />
          </mxGeometry>
        </mxCell>
        <mxCell id="8tcnVI2hWbha8-BifQ2l-10" value=":ATTORNEY_OF" style="edgeLabel;html=1;align=center;verticalAlign=middle;resizable=0;points=[];fontSize=13;" parent="8tcnVI2hWbha8-BifQ2l-1" vertex="1" connectable="0">
          <mxGeometry x="-0.0909" y="-1" relative="1" as="geometry">
            <mxPoint x="-34" y="31" as="offset" />
          </mxGeometry>
        </mxCell>
        <mxCell id="8tcnVI2hWbha8-BifQ2l-2" value="attorney_id &amp;nbsp; &amp;nbsp; &amp;nbsp; &amp;nbsp; &amp;nbsp; &amp;nbsp; &amp;nbsp; &amp;nbsp; &amp;nbsp; &amp;nbsp; c&lt;br&gt;attorney_name &amp;nbsp; &amp;nbsp; &amp;nbsp; &amp;nbsp; &amp;nbsp; &amp;nbsp; &amp;nbsp;cm&lt;br&gt;attorney_display_name&lt;br&gt;&lt;div style=&quot;&quot;&gt;&lt;span style=&quot;background-color: initial;&quot;&gt;attorney_organization &amp;nbsp;&lt;/span&gt;&lt;/div&gt;" style="rounded=0;whiteSpace=wrap;html=1;align=left;verticalAlign=top;" parent="1" vertex="1">
          <mxGeometry x="670" y="360" width="160" height="70" as="geometry" />
        </mxCell>
        <mxCell id="8tcnVI2hWbha8-BifQ2l-3" value="&lt;font style=&quot;font-size: 18px;&quot;&gt;&lt;u&gt;&lt;font style=&quot;font-size: 18px;&quot;&gt;Legend:&lt;/font&gt;&lt;br&gt;&lt;/u&gt;&lt;/font&gt;&lt;div style=&quot;text-align: left; font-size: 18px;&quot;&gt;&lt;span style=&quot;background-color: initial;&quot;&gt;&lt;font style=&quot;font-size: 15px;&quot;&gt;c &amp;nbsp; &amp;nbsp; &amp;nbsp; &amp;nbsp; &amp;nbsp; &amp;nbsp; &amp;nbsp; &amp;nbsp; composite index&lt;/font&gt;&lt;/span&gt;&lt;/div&gt;&lt;div style=&quot;text-align: left; font-size: 15px;&quot;&gt;&lt;span style=&quot;background-color: initial;&quot;&gt;&lt;font style=&quot;font-size: 15px;&quot;&gt;m &amp;nbsp; &amp;nbsp; &amp;nbsp; &amp;nbsp; &amp;nbsp; &amp;nbsp; &amp;nbsp; &amp;nbsp;mixed index&lt;/font&gt;&lt;/span&gt;&lt;/div&gt;&lt;div style=&quot;text-align: left; font-size: 15px;&quot;&gt;&lt;br&gt;&lt;/div&gt;&lt;div style=&quot;text-align: left; font-size: 15px;&quot;&gt;&lt;span style=&quot;background-color: initial;&quot;&gt;&lt;font style=&quot;font-size: 15px;&quot;&gt;1. All fields are returnable to CADRE interface.&lt;/font&gt;&lt;/span&gt;&lt;/div&gt;&lt;div style=&quot;text-align: left; font-size: 15px;&quot;&gt;&lt;span style=&quot;background-color: initial;&quot;&gt;&lt;font style=&quot;font-size: 15px;&quot;&gt;2. All searchable fields are indexed.&lt;/font&gt;&lt;/span&gt;&lt;/div&gt;" style="rounded=1;whiteSpace=wrap;html=1;" parent="1" vertex="1">
          <mxGeometry x="380" y="800" width="200" height="210" as="geometry" />
        </mxCell>
        <mxCell id="8tcnVI2hWbha8-BifQ2l-4" value="USPTO Graph Schema 2/15/2023" style="text;html=1;align=center;verticalAlign=middle;resizable=0;points=[];autosize=1;strokeColor=none;fillColor=none;fontSize=18;fontStyle=5" parent="1" vertex="1">
          <mxGeometry x="275" y="45" width="300" height="30" as="geometry" />
        </mxCell>
        <mxCell id="8tcnVI2hWbha8-BifQ2l-5" value="&lt;b style=&quot;font-size: 13px;&quot;&gt;Government&lt;br&gt;Organization&lt;/b&gt;" style="ellipse;whiteSpace=wrap;html=1;aspect=fixed;fontSize=15;fillColor=#b0e3e6;strokeColor=#0e8088;" parent="1" vertex="1">
          <mxGeometry x="45" y="330" width="90" height="90" as="geometry" />
        </mxCell>
        <mxCell id="8tcnVI2hWbha8-BifQ2l-7" value="" style="endArrow=classic;html=1;rounded=0;fontSize=13;entryX=0;entryY=0.5;entryDx=0;entryDy=0;" parent="1" source="8tcnVI2hWbha8-BifQ2l-5" target="I_eIPNrGaGb-8BUkP_D7-4" edge="1">
          <mxGeometry width="50" height="50" relative="1" as="geometry">
            <mxPoint x="155" y="465" as="sourcePoint" />
            <mxPoint x="205" y="415" as="targetPoint" />
          </mxGeometry>
        </mxCell>
        <mxCell id="8tcnVI2hWbha8-BifQ2l-12" value=":INTERESTED_IN" style="edgeLabel;html=1;align=center;verticalAlign=middle;resizable=0;points=[];fontSize=13;" parent="8tcnVI2hWbha8-BifQ2l-7" vertex="1" connectable="0">
          <mxGeometry x="-0.2811" y="1" relative="1" as="geometry">
            <mxPoint x="51" y="35" as="offset" />
          </mxGeometry>
        </mxCell>
        <mxCell id="8tcnVI2hWbha8-BifQ2l-8" value=":CITATION" style="curved=1;endArrow=classic;html=1;rounded=0;fontSize=13;exitX=0.017;exitY=0.358;exitDx=0;exitDy=0;exitPerimeter=0;entryX=0.042;entryY=0.3;entryDx=0;entryDy=0;entryPerimeter=0;" parent="1" source="I_eIPNrGaGb-8BUkP_D7-4" target="I_eIPNrGaGb-8BUkP_D7-4" edge="1">
          <mxGeometry x="-0.0459" y="22" width="50" height="50" relative="1" as="geometry">
            <mxPoint x="195" y="390" as="sourcePoint" />
            <mxPoint x="245" y="340" as="targetPoint" />
            <Array as="points">
              <mxPoint x="305" y="410" />
              <mxPoint x="305" y="400" />
              <mxPoint x="325" y="390" />
            </Array>
            <mxPoint x="-10" y="10" as="offset" />
          </mxGeometry>
        </mxCell>
        <mxCell id="8tcnVI2hWbha8-BifQ2l-11" value="organization_id &amp;nbsp; &amp;nbsp; &amp;nbsp; c&lt;br&gt;fedagency_name &amp;nbsp; &amp;nbsp;cm&lt;br&gt;level_one&lt;br&gt;level_two&lt;br&gt;level_three" style="rounded=0;whiteSpace=wrap;html=1;fontSize=13;align=left;verticalAlign=top;" parent="1" vertex="1">
          <mxGeometry x="15" y="400" width="185" height="90" as="geometry" />
        </mxCell>
        <mxCell id="8tcnVI2hWbha8-BifQ2l-17" value="Application" style="ellipse;whiteSpace=wrap;html=1;aspect=fixed;fontSize=13;align=center;fontStyle=1;fillColor=#d0cee2;strokeColor=#56517e;" parent="1" vertex="1">
          <mxGeometry x="45" y="680" width="80" height="80" as="geometry" />
        </mxCell>
        <mxCell id="8tcnVI2hWbha8-BifQ2l-18" value="" style="endArrow=classic;html=1;rounded=0;fontSize=13;entryX=0.242;entryY=0.942;entryDx=0;entryDy=0;entryPerimeter=0;" parent="1" source="8tcnVI2hWbha8-BifQ2l-17" target="I_eIPNrGaGb-8BUkP_D7-4" edge="1">
          <mxGeometry width="50" height="50" relative="1" as="geometry">
            <mxPoint x="125" y="740" as="sourcePoint" />
            <mxPoint x="175" y="690" as="targetPoint" />
            <Array as="points">
              <mxPoint x="265" y="610" />
            </Array>
          </mxGeometry>
        </mxCell>
        <mxCell id="8tcnVI2hWbha8-BifQ2l-19" value=":BECOMES" style="edgeLabel;html=1;align=center;verticalAlign=middle;resizable=0;points=[];fontSize=13;" parent="8tcnVI2hWbha8-BifQ2l-18" vertex="1" connectable="0">
          <mxGeometry x="-0.0729" y="-3" relative="1" as="geometry">
            <mxPoint x="-45" y="56" as="offset" />
          </mxGeometry>
        </mxCell>
        <mxCell id="8tcnVI2hWbha8-BifQ2l-20" value="application_id &amp;nbsp; &amp;nbsp; &amp;nbsp; &amp;nbsp; c &amp;nbsp;&lt;br&gt;application_type &amp;nbsp; &amp;nbsp; c&lt;br&gt;filing_date &amp;nbsp; &amp;nbsp; &amp;nbsp; &amp;nbsp; &amp;nbsp; &amp;nbsp; &amp;nbsp; cm &amp;nbsp; &amp;nbsp;" style="rounded=0;whiteSpace=wrap;html=1;fontSize=13;align=left;verticalAlign=top;" parent="1" vertex="1">
          <mxGeometry x="15" y="740" width="155" height="60" as="geometry" />
        </mxCell>
        <mxCell id="8tcnVI2hWbha8-BifQ2l-21" value="IPC" style="ellipse;whiteSpace=wrap;html=1;aspect=fixed;fontSize=13;fontStyle=1;fillColor=#6a00ff;strokeColor=#3700CC;fontColor=#ffffff;" parent="1" vertex="1">
          <mxGeometry x="155" y="870" width="80" height="80" as="geometry" />
        </mxCell>
        <mxCell id="8tcnVI2hWbha8-BifQ2l-22" value="" style="endArrow=classic;html=1;rounded=0;fontSize=13;exitX=1;exitY=0;exitDx=0;exitDy=0;entryX=0.192;entryY=0.925;entryDx=0;entryDy=0;entryPerimeter=0;" parent="1" source="8tcnVI2hWbha8-BifQ2l-17" target="I_eIPNrGaGb-8BUkP_D7-4" edge="1">
          <mxGeometry width="50" height="50" relative="1" as="geometry">
            <mxPoint x="115" y="740" as="sourcePoint" />
            <mxPoint x="165" y="690" as="targetPoint" />
            <Array as="points">
              <mxPoint x="255" y="540" />
            </Array>
          </mxGeometry>
        </mxCell>
        <mxCell id="8tcnVI2hWbha8-BifQ2l-23" value=":CITES" style="edgeLabel;html=1;align=center;verticalAlign=middle;resizable=0;points=[];fontSize=13;" parent="8tcnVI2hWbha8-BifQ2l-22" vertex="1" connectable="0">
          <mxGeometry x="-0.1675" y="-2" relative="1" as="geometry">
            <mxPoint as="offset" />
          </mxGeometry>
        </mxCell>
        <mxCell id="8tcnVI2hWbha8-BifQ2l-24" value="" style="endArrow=classic;html=1;rounded=0;fontSize=13;exitX=1;exitY=0;exitDx=0;exitDy=0;entryX=0.35;entryY=1;entryDx=0;entryDy=0;entryPerimeter=0;" parent="1" source="8tcnVI2hWbha8-BifQ2l-21" target="I_eIPNrGaGb-8BUkP_D7-4" edge="1">
          <mxGeometry width="50" height="50" relative="1" as="geometry">
            <mxPoint x="165" y="920" as="sourcePoint" />
            <mxPoint x="215" y="870" as="targetPoint" />
          </mxGeometry>
        </mxCell>
        <mxCell id="8tcnVI2hWbha8-BifQ2l-25" value=":ICP_CATEGORY_OF" style="edgeLabel;html=1;align=center;verticalAlign=middle;resizable=0;points=[];fontSize=13;" parent="8tcnVI2hWbha8-BifQ2l-24" vertex="1" connectable="0">
          <mxGeometry x="-0.5066" y="1" relative="1" as="geometry">
            <mxPoint as="offset" />
          </mxGeometry>
        </mxCell>
        <mxCell id="8tcnVI2hWbha8-BifQ2l-26" value="ipc_id &amp;nbsp; &amp;nbsp; &amp;nbsp; &amp;nbsp; &amp;nbsp; &amp;nbsp; &amp;nbsp; &amp;nbsp; c&lt;br&gt;level &amp;nbsp; &amp;nbsp; &amp;nbsp; &amp;nbsp; &amp;nbsp; &amp;nbsp; &amp;nbsp; &amp;nbsp; &amp;nbsp; c&lt;br&gt;&lt;div style=&quot;&quot;&gt;&lt;span style=&quot;background-color: initial;&quot;&gt;category_label &amp;nbsp; c&lt;/span&gt;&lt;/div&gt;" style="rounded=0;whiteSpace=wrap;html=1;fontSize=13;align=left;verticalAlign=top;" parent="1" vertex="1">
          <mxGeometry x="135" y="930" width="145" height="60" as="geometry" />
        </mxCell>
        <mxCell id="8tcnVI2hWbha8-BifQ2l-27" value="WIPO" style="ellipse;whiteSpace=wrap;html=1;aspect=fixed;fontSize=13;fontStyle=1;fillColor=#1ba1e2;fontColor=#ffffff;strokeColor=#006EAF;" parent="1" vertex="1">
          <mxGeometry x="735" y="850" width="80" height="80" as="geometry" />
        </mxCell>
        <mxCell id="8tcnVI2hWbha8-BifQ2l-28" value="" style="endArrow=classic;html=1;rounded=0;fontSize=13;exitX=0.613;exitY=-0.025;exitDx=0;exitDy=0;exitPerimeter=0;" parent="1" source="8tcnVI2hWbha8-BifQ2l-27" target="I_eIPNrGaGb-8BUkP_D7-4" edge="1">
          <mxGeometry width="50" height="50" relative="1" as="geometry">
            <mxPoint x="415" y="840" as="sourcePoint" />
            <mxPoint x="465" y="790" as="targetPoint" />
          </mxGeometry>
        </mxCell>
        <mxCell id="8tcnVI2hWbha8-BifQ2l-29" value=":WIPO_CATEGORY_OF" style="edgeLabel;html=1;align=center;verticalAlign=middle;resizable=0;points=[];fontSize=13;" parent="8tcnVI2hWbha8-BifQ2l-28" vertex="1" connectable="0">
          <mxGeometry x="-0.5931" relative="1" as="geometry">
            <mxPoint y="25" as="offset" />
          </mxGeometry>
        </mxCell>
        <mxCell id="8tcnVI2hWbha8-BifQ2l-30" value="wipo_field_id &amp;nbsp; &amp;nbsp; c&lt;br&gt;level &amp;nbsp; &amp;nbsp; &amp;nbsp; &amp;nbsp; &amp;nbsp; &amp;nbsp; &amp;nbsp; &amp;nbsp; &amp;nbsp; c&lt;br&gt;category_label &amp;nbsp; c" style="rounded=0;whiteSpace=wrap;html=1;fontSize=13;align=left;verticalAlign=top;" parent="1" vertex="1">
          <mxGeometry x="707.5" y="910" width="132.5" height="60" as="geometry" />
        </mxCell>
        <mxCell id="8tcnVI2hWbha8-BifQ2l-32" value="CPC" style="ellipse;whiteSpace=wrap;html=1;aspect=fixed;fontSize=13;fillColor=#0050ef;fontColor=#ffffff;strokeColor=#001DBC;" parent="1" vertex="1">
          <mxGeometry x="710" y="620" width="80" height="80" as="geometry" />
        </mxCell>
        <mxCell id="8tcnVI2hWbha8-BifQ2l-34" value="cpc_id &amp;nbsp; &amp;nbsp; &amp;nbsp; &amp;nbsp; &amp;nbsp; &amp;nbsp; &amp;nbsp; &amp;nbsp;c&lt;br&gt;level &amp;nbsp; &amp;nbsp; &amp;nbsp; &amp;nbsp; &amp;nbsp; &amp;nbsp; &amp;nbsp; &amp;nbsp; &amp;nbsp; c&lt;br&gt;category_label &amp;nbsp; c" style="rounded=0;whiteSpace=wrap;html=1;fontSize=13;align=left;verticalAlign=top;" parent="1" vertex="1">
          <mxGeometry x="665" y="670" width="160" height="60" as="geometry" />
        </mxCell>
        <mxCell id="8tcnVI2hWbha8-BifQ2l-35" value="USPC" style="ellipse;whiteSpace=wrap;html=1;aspect=fixed;fontSize=13;fillColor=#60a917;fontColor=#ffffff;strokeColor=#2D7600;" parent="1" vertex="1">
          <mxGeometry x="735" y="450" width="80" height="80" as="geometry" />
        </mxCell>
        <mxCell id="8tcnVI2hWbha8-BifQ2l-37" value="" style="endArrow=classic;html=1;rounded=0;fontSize=13;exitX=0;exitY=0;exitDx=0;exitDy=0;" parent="1" source="8tcnVI2hWbha8-BifQ2l-35" target="I_eIPNrGaGb-8BUkP_D7-4" edge="1">
          <mxGeometry width="50" height="50" relative="1" as="geometry">
            <mxPoint x="395" y="690" as="sourcePoint" />
            <mxPoint x="445" y="640" as="targetPoint" />
          </mxGeometry>
        </mxCell>
        <mxCell id="8tcnVI2hWbha8-BifQ2l-40" value=":USPC_CATEGORY_OF" style="edgeLabel;html=1;align=center;verticalAlign=middle;resizable=0;points=[];fontSize=13;" parent="8tcnVI2hWbha8-BifQ2l-37" vertex="1" connectable="0">
          <mxGeometry x="-0.4641" y="-1" relative="1" as="geometry">
            <mxPoint as="offset" />
          </mxGeometry>
        </mxCell>
        <mxCell id="8tcnVI2hWbha8-BifQ2l-38" value="uspc_id &amp;nbsp; &amp;nbsp; &amp;nbsp; &amp;nbsp; &amp;nbsp; &amp;nbsp; &amp;nbsp; &amp;nbsp;c&lt;br&gt;level &amp;nbsp; &amp;nbsp; &amp;nbsp; &amp;nbsp; &amp;nbsp; &amp;nbsp; &amp;nbsp; &amp;nbsp; &amp;nbsp; &amp;nbsp; c&lt;br&gt;category_label &amp;nbsp; &amp;nbsp; c" style="rounded=0;whiteSpace=wrap;html=1;fontSize=13;align=left;verticalAlign=top;" parent="1" vertex="1">
          <mxGeometry x="665" y="510" width="170" height="60" as="geometry" />
        </mxCell>
        <mxCell id="8tcnVI2hWbha8-BifQ2l-39" value="patent_id&lt;span style=&quot;white-space: pre;&quot;&gt;&amp;nbsp;                c&lt;/span&gt;&lt;br&gt;patent_type &amp;nbsp; &amp;nbsp; &amp;nbsp; &amp;nbsp; &amp;nbsp; &amp;nbsp; c&lt;br&gt;patent_date &amp;nbsp; &amp;nbsp; &amp;nbsp; &amp;nbsp; &amp;nbsp; &amp;nbsp; cm&lt;br&gt;patent_year &amp;nbsp; &amp;nbsp; &amp;nbsp; &amp;nbsp; &amp;nbsp; &amp;nbsp; cm&lt;br&gt;patent_abstract &amp;nbsp; &amp;nbsp; &amp;nbsp; m&lt;br&gt;patent_title &amp;nbsp; &amp;nbsp; &amp;nbsp; &amp;nbsp; &amp;nbsp; &amp;nbsp; &amp;nbsp;cm &amp;nbsp; &amp;nbsp;&lt;br&gt;wipo_kind &amp;nbsp; &amp;nbsp; &amp;nbsp; &amp;nbsp; &amp;nbsp; &amp;nbsp;&amp;nbsp;&lt;br&gt;num_claims" style="rounded=0;whiteSpace=wrap;html=1;fontSize=13;align=left;verticalAlign=top;" parent="1" vertex="1">
          <mxGeometry x="375" y="530" width="145" height="140" as="geometry" />
        </mxCell>
        <mxCell id="8tcnVI2hWbha8-BifQ2l-43" value="" style="endArrow=classic;html=1;rounded=0;fontSize=13;exitX=0;exitY=0;exitDx=0;exitDy=0;" parent="1" source="8tcnVI2hWbha8-BifQ2l-32" target="I_eIPNrGaGb-8BUkP_D7-4" edge="1">
          <mxGeometry width="50" height="50" relative="1" as="geometry">
            <mxPoint x="744.9957287525378" y="654.7557287525378" as="sourcePoint" />
            <mxPoint x="480.28" y="500.00000000000006" as="targetPoint" />
          </mxGeometry>
        </mxCell>
        <mxCell id="8tcnVI2hWbha8-BifQ2l-44" value=":CPC_CATEGORY_OF" style="edgeLabel;html=1;align=center;verticalAlign=middle;resizable=0;points=[];fontSize=13;" parent="8tcnVI2hWbha8-BifQ2l-43" vertex="1" connectable="0">
          <mxGeometry x="-0.0875" relative="1" as="geometry">
            <mxPoint x="65" y="41" as="offset" />
          </mxGeometry>
        </mxCell>
      </root>
    </mxGraphModel>
  </diagram>
</mxfile>
